<svg width="16" height="15" viewBox="0 0 16 15" fill="none" xmlns="http://www.w3.org/2000/svg">
<path d="M7.33335 9.375V10.625C7.33335 10.8021 7.39735 10.9504 7.52535 11.07C7.65291 11.19 7.81113 11.25 8.00002 11.25C8.18891 11.25 8.34735 11.19 8.47535 11.07C8.60291 10.9504 8.66669 10.8021 8.66669 10.625V9.375H10C10.1889 9.375 10.3474 9.315 10.4754 9.195C10.6029 9.07542 10.6667 8.92708 10.6667 8.75C10.6667 8.57292 10.6029 8.42437 10.4754 8.30437C10.3474 8.18479 10.1889 8.125 10 8.125H8.66669V6.875C8.66669 6.69792 8.60291 6.54937 8.47535 6.42937C8.34735 6.30979 8.18891 6.25 8.00002 6.25C7.81113 6.25 7.65291 6.30979 7.52535 6.42937C7.39735 6.54937 7.33335 6.69792 7.33335 6.875V8.125H6.00002C5.81113 8.125 5.65291 8.18479 5.52535 8.30437C5.39735 8.42437 5.33335 8.57292 5.33335 8.75C5.33335 8.92708 5.39735 9.07542 5.52535 9.195C5.65291 9.315 5.81113 9.375 6.00002 9.375H7.33335ZM4.00002 13.75C3.63335 13.75 3.31958 13.6277 3.05869 13.3831C2.79735 13.1381 2.66669 12.8437 2.66669 12.5V2.5C2.66669 2.15625 2.79735 1.86187 3.05869 1.61687C3.31958 1.37229 3.63335 1.25 4.00002 1.25H8.78335C8.96113 1.25 9.13069 1.28125 9.29202 1.34375C9.45291 1.40625 9.59447 1.49479 9.71669 1.60938L12.95 4.64062C13.0722 4.75521 13.1667 4.88792 13.2334 5.03875C13.3 5.19 13.3334 5.34896 13.3334 5.51562V12.5C13.3334 12.8437 13.2029 13.1381 12.942 13.3831C12.6807 13.6277 12.3667 13.75 12 13.75H4.00002ZM8.66669 5V2.5H4.00002V12.5H12V5.625H9.33335C9.14447 5.625 8.98624 5.565 8.85869 5.445C8.73069 5.32542 8.66669 5.17708 8.66669 5Z" fill="#2E2E2E" fill-opacity="0.9"/>
</svg>
