<svg width="16" height="15" viewBox="0 0 16 15" fill="none" xmlns="http://www.w3.org/2000/svg">
<path d="M4.66669 13.125C4.30002 13.125 3.98624 13.0027 3.72535 12.7581C3.46402 12.5131 3.33335 12.2188 3.33335 11.875V3.75C3.14446 3.75 2.98602 3.69021 2.85802 3.57062C2.73046 3.45062 2.66669 3.30208 2.66669 3.125C2.66669 2.94792 2.73046 2.79938 2.85802 2.67938C2.98602 2.55979 3.14446 2.5 3.33335 2.5H6.00002C6.00002 2.32292 6.06402 2.17437 6.19202 2.05437C6.31958 1.93479 6.4778 1.875 6.66669 1.875H9.33335C9.52224 1.875 9.68069 1.93479 9.80869 2.05437C9.93624 2.17437 10 2.32292 10 2.5H12.6667C12.8556 2.5 13.0138 2.55979 13.1414 2.67938C13.2694 2.79938 13.3334 2.94792 13.3334 3.125C13.3334 3.30208 13.2694 3.45062 13.1414 3.57062C13.0138 3.69021 12.8556 3.75 12.6667 3.75V11.875C12.6667 12.2188 12.5362 12.5131 12.2754 12.7581C12.014 13.0027 11.7 13.125 11.3334 13.125H4.66669ZM4.66669 3.75V11.875H11.3334V3.75H4.66669ZM6.00002 10C6.00002 10.1771 6.06402 10.3254 6.19202 10.445C6.31958 10.565 6.4778 10.625 6.66669 10.625C6.85558 10.625 7.01402 10.565 7.14202 10.445C7.26958 10.3254 7.33335 10.1771 7.33335 10V5.625C7.33335 5.44792 7.26958 5.29937 7.14202 5.17937C7.01402 5.05979 6.85558 5 6.66669 5C6.4778 5 6.31958 5.05979 6.19202 5.17937C6.06402 5.29937 6.00002 5.44792 6.00002 5.625V10ZM8.66669 10C8.66669 10.1771 8.73069 10.3254 8.85869 10.445C8.98624 10.565 9.14447 10.625 9.33335 10.625C9.52224 10.625 9.68069 10.565 9.80869 10.445C9.93624 10.3254 10 10.1771 10 10V5.625C10 5.44792 9.93624 5.29937 9.80869 5.17937C9.68069 5.05979 9.52224 5 9.33335 5C9.14447 5 8.98624 5.05979 8.85869 5.17937C8.73069 5.29937 8.66669 5.44792 8.66669 5.625V10Z" fill="#2E2E2E" fill-opacity="0.9"/>
</svg>
